<?xml version="1.0" encoding="utf-8"?>

<!-- License Agreement at http://iconmonstr.com/license/ -->

<!DOCTYPE svg PUBLIC "-//W3C//DTD SVG 1.1//EN" "http://www.w3.org/Graphics/SVG/1.1/DTD/svg11.dtd">
<svg version="1.1" xmlns="http://www.w3.org/2000/svg" xmlns:xlink="http://www.w3.org/1999/xlink" x="0px" y="0px"
	 width="512px" height="512px" viewBox="0 0 512 512" enable-background="new 0 0 512 512" xml:space="preserve">
<path id="christmas-star-2-icon" d="M256,232.021l12.986,26.789l29.491,4.072l-21.466,20.63l5.24,29.306L256,298.777l-26.252,14.04
	l5.24-29.306l-21.466-20.63l29.491-4.072L256,232.021z M256,186.17l-26.317,54.291l-59.767,8.252l43.502,41.808l-10.62,59.391
	L256,321.458l53.202,28.453l-10.62-59.391l43.502-41.808l-59.767-8.252L256,186.17z M462,209.749l-143.021-19.748L256,60.082
	l-62.979,129.919L50,209.749l104.1,100.045l-25.414,142.124L256,383.828l127.314,68.09L357.9,309.794L462,209.749z M256,349.809
	l-86.89,46.469l17.345-96.996l-71.046-68.279l97.609-13.478L256,128.857l42.981,88.667l97.609,13.478l-71.046,68.279l17.345,96.996
	L256,349.809z"/>
</svg>
