<?xml version="1.0" encoding="utf-8"?>

<!-- The icon can be used freely in both personal and commercial projects with no attribution required, but always appreciated. 
You may NOT sub-license, resell, rent, redistribute or otherwise transfer the icon without express written permission from iconmonstr.com -->

<!DOCTYPE svg PUBLIC "-//W3C//DTD SVG 1.1//EN" "http://www.w3.org/Graphics/SVG/1.1/DTD/svg11.dtd">
<svg version="1.1" xmlns="http://www.w3.org/2000/svg" xmlns:xlink="http://www.w3.org/1999/xlink" x="0px" y="0px"
	 width="512px" height="512px" viewBox="0 0 512 512" enable-background="new 0 0 512 512" xml:space="preserve">
<path id="police-truncheon-icon" d="M332.383,303.053l-44.469,44.467c0,0,3.216-14.049-10.508-27.773
	c-0.331-0.331-159.332-149.557-218.317-204.915c-5.683-5.334-8.959-12.744-9.085-20.537s2.906-15.315,8.417-20.827
	c5.49-5.49,12.97-8.518,20.732-8.392c7.762,0.125,15.138,3.396,20.45,9.057c55.291,58.913,204.697,218.104,205.006,218.415
	C318.679,306.614,332.383,303.053,332.383,303.053z M433.316,406.874c-4.728,7.417-9.821,11.021-15.562,11.021
	c-4.507,0-9.776-2.184-15.66-6.462c4.885-7.607,4.009-17.842-2.646-24.492l-64.935-64.938l-27.791,27.791l64.936,64.935
	c6.503,6.5,16.412,7.473,23.96,2.963c3.643,14.798,16.949,29.239,34.508,29.239c17.816,0,35.461-15.945,31.242-35.45
	C458.188,396.754,443.624,390.72,433.316,406.874z M453.88,412.68c2.101,9.705-2.843,19.467-13.885,24.473
	c-16.772,7.607-31.857-4.856-35.846-16.438c10.651,7.555,25.543,6.063,35.847-10.09C444.972,402.822,451.905,403.538,453.88,412.68z
	"/>
</svg>
