<?xml version="1.0" encoding="utf-8"?>

<!-- License Agreement at http://iconmonstr.com/license/ -->

<!DOCTYPE svg PUBLIC "-//W3C//DTD SVG 1.1//EN" "http://www.w3.org/Graphics/SVG/1.1/DTD/svg11.dtd">
<svg version="1.1" xmlns="http://www.w3.org/2000/svg" xmlns:xlink="http://www.w3.org/1999/xlink" x="0px" y="0px"
	 width="512px" height="512px" viewBox="0 0 512 512" enable-background="new 0 0 512 512" xml:space="preserve">
<path id="bookmark-23-icon" d="M377.343,148.684c-46.756,0-84.66,37.902-84.66,84.658c0,46.758,37.904,84.66,84.66,84.66
	s84.658-37.902,84.658-84.66C462.001,186.586,424.099,148.684,377.343,148.684z M429.372,248.727h-36.645v36.645h-28.303v-36.645
	H327.78v-28.301h36.645v-36.645h28.303v36.645h36.645V248.727z M364.607,347.299l18.708,104.619L256,383.828l-127.315,68.09
	L154.1,309.793L49.999,209.75l143.022-19.748L256,60.082l43.281,89.286c-10.756,10.023-18.975,21.357-24.913,33.429L256,144.905
	l-38.315,79.042l-87.013,12.015l63.333,60.865l-15.462,86.467L256,341.869l77.457,41.425l-8.572-47.941
	C337.209,341.708,350.628,345.764,364.607,347.299z"/>
</svg>
